ffmpeg started on 2025-07-20 at 12:20:29
Report written to "D:\Convert\FFMetrics\reports\ssim_report-6.txt"
Log level: 32
Command line:
ffmpeg -hide_banner -nostdin -i "G:\\\xc0\xed\xe8\xec\xe5\\\xce\xed\xe3\xee\xe8\xed\xe3\xe8\\!_10_\xc2\xe5\xf1\xed\xe0_2018\\\xcf\xee\xf2\xe5\xf0\xff\xed\xed\xe0\xff \xef\xe5\xf1\xed\xff\\[SHIZA Project] Lost Song ONA [07] [MVO]_HEVC.mkv" -i "G:\\\xc0\xed\xe8\xec\xe5\\\xce\xed\xe3\xee\xe8\xed\xe3\xe8\\!_10_\xc2\xe5\xf1\xed\xe0_2018\\\xcf\xee\xf2\xe5\xf0\xff\xed\xed\xe0\xff \xef\xe5\xf1\xed\xff\\[SHIZA Project] Lost Song ONA [07] [MVO].mkv" -lavfi "[0:v]settb=AVTB,setpts=PTS-STARTPTS,format=pix_fmts=yuv420p10,fps=24000/1001,scale=1280:720:flags=bicubic[main];[1:v]settb=AVTB,setpts=PTS-STARTPTS,format=pix_fmts=yuv420p,fps=24000/1001,scale=1280:720:flags=bicubic[ref];[main][ref]ssim=eof_action=endall:stats_file='D\\:/Convert/FFMetrics/logs/ssim_logfile-6.txt'" -f null -
Input #0, matroska,webm, from 'G:\Аниме\Онгоинги\!_10_Весна_2018\Потерянная песня\[SHIZA Project] Lost Song ONA [07] [MVO]_HEVC.mkv':
  Metadata:
    ENCODER         : Lavf61.7.100
  Duration: 00:23:57.14, start: -0.021000, bitrate: 517 kb/s
  Stream #0:0(jpn): Video: hevc (Main 10), yuv420p10le(tv, bt709, progressive), 1280x720 [SAR 1:1 DAR 16:9], 23.98 fps, 23.98 tbr, 1k tbn (default)
      Metadata:
        title           : www.SHIZA-Project.com
        ENCODER         : Lavc61.19.100 libx265
        BPS             : 321532
        DURATION        : 00:23:57.102708333
        NUMBER_OF_FRAMES: 34456
        NUMBER_OF_BYTES : 57759422
        _STATISTICS_WRITING_APP: mkvpropedit v66.0.0 ('Josie') 64-bit
        _STATISTICS_WRITING_DATE_UTC: 2025-07-19 13:06:45
        _STATISTICS_TAGS: BPS DURATION NUMBER_OF_FRAMES NUMBER_OF_BYTES
  Stream #0:1(rus): Audio: aac (LC), 48000 Hz, stereo, fltp (default)
      Metadata:
        title           : SHIZA Project MVO
        ENCODER         : Lavc61.19.100 aac
        BPS             : 192050
        DURATION        : 00:23:57.120000000
        NUMBER_OF_FRAMES: 67366
        NUMBER_OF_BYTES : 34499974
        _STATISTICS_WRITING_APP: mkvpropedit v66.0.0 ('Josie') 64-bit
        _STATISTICS_WRITING_DATE_UTC: 2025-07-19 13:06:45
        _STATISTICS_TAGS: BPS DURATION NUMBER_OF_FRAMES NUMBER_OF_BYTES
  Stream #0:2(rus): Subtitle: ass (ssa) (default)
      Metadata:
        BPS             : 24
        DURATION        : 00:19:03.020000000
        NUMBER_OF_FRAMES: 42
        NUMBER_OF_BYTES : 3561
        _STATISTICS_WRITING_APP: mkvpropedit v66.0.0 ('Josie') 64-bit
        _STATISTICS_WRITING_DATE_UTC: 2025-07-19 13:06:45
        _STATISTICS_TAGS: BPS DURATION NUMBER_OF_FRAMES NUMBER_OF_BYTES
Input #1, matroska,webm, from 'G:\Аниме\Онгоинги\!_10_Весна_2018\Потерянная песня\[SHIZA Project] Lost Song ONA [07] [MVO].mkv':
  Metadata:
    encoder         : libebml v1.3.1 + libmatroska v1.4.2
    creation_time   : 2018-07-09T22:09:42.000000Z
  Duration: 00:23:57.12, start: 0.000000, bitrate: 1457 kb/s
  Stream #1:0(jpn): Video: h264 (Main), yuv420p(progressive), 1280x720 [SAR 1:1 DAR 16:9], 23.98 fps, 23.98 tbr, 1k tbn (default)
      Metadata:
        title           : www.SHIZA-Project.com
        BPS             : 1262717
        BPS-eng         : 1262717
        DURATION        : 00:23:57.103000000
        DURATION-eng    : 00:23:57.103000000
        NUMBER_OF_FRAMES: 34456
        NUMBER_OF_FRAMES-eng: 34456
        NUMBER_OF_BYTES : 226831846
        NUMBER_OF_BYTES-eng: 226831846
        _STATISTICS_WRITING_APP: mkvmerge v7.8.0 ('River Man') 32bit built on Mar 27 2015 16:18:02
        _STATISTICS_WRITING_APP-eng: mkvmerge v7.8.0 ('River Man') 32bit built on Mar 27 2015 16:18:02
        _STATISTICS_WRITING_DATE_UTC: 2018-07-09 22:09:42
        _STATISTICS_WRITING_DATE_UTC-eng: 2018-07-09 22:09:42
        _STATISTICS_TAGS: BPS DURATION NUMBER_OF_FRAMES NUMBER_OF_BYTES
        _STATISTICS_TAGS-eng: BPS DURATION NUMBER_OF_FRAMES NUMBER_OF_BYTES
  Stream #1:1(rus): Audio: aac (LC), 48000 Hz, stereo, fltp (default)
      Metadata:
        title           : SHIZA Project MVO
        BPS             : 192000
        BPS-eng         : 192000
        DURATION        : 00:23:57.120000000
        DURATION-eng    : 00:23:57.120000000
        NUMBER_OF_FRAMES: 67365
        NUMBER_OF_FRAMES-eng: 67365
        NUMBER_OF_BYTES : 34490881
        NUMBER_OF_BYTES-eng: 34490881
        _STATISTICS_WRITING_APP: mkvmerge v7.8.0 ('River Man') 32bit built on Mar 27 2015 16:18:02
        _STATISTICS_WRITING_APP-eng: mkvmerge v7.8.0 ('River Man') 32bit built on Mar 27 2015 16:18:02
        _STATISTICS_WRITING_DATE_UTC: 2018-07-09 22:09:42
        _STATISTICS_WRITING_DATE_UTC-eng: 2018-07-09 22:09:42
        _STATISTICS_TAGS: BPS DURATION NUMBER_OF_FRAMES NUMBER_OF_BYTES
        _STATISTICS_TAGS-eng: BPS DURATION NUMBER_OF_FRAMES NUMBER_OF_BYTES
  Stream #1:2(rus): Subtitle: ass (ssa) (default)
      Metadata:
        BPS             : 24
        BPS-eng         : 24
        DURATION        : 00:19:03.020000000
        DURATION-eng    : 00:19:03.020000000
        NUMBER_OF_FRAMES: 42
        NUMBER_OF_FRAMES-eng: 42
        NUMBER_OF_BYTES : 3561
        NUMBER_OF_BYTES-eng: 3561
        _STATISTICS_WRITING_APP: mkvmerge v7.8.0 ('River Man') 32bit built on Mar 27 2015 16:18:02
        _STATISTICS_WRITING_APP-eng: mkvmerge v7.8.0 ('River Man') 32bit built on Mar 27 2015 16:18:02
        _STATISTICS_WRITING_DATE_UTC: 2018-07-09 22:09:42
        _STATISTICS_WRITING_DATE_UTC-eng: 2018-07-09 22:09:42
        _STATISTICS_TAGS: BPS DURATION NUMBER_OF_FRAMES NUMBER_OF_BYTES
        _STATISTICS_TAGS-eng: BPS DURATION NUMBER_OF_FRAMES NUMBER_OF_BYTES
Stream mapping:
  Stream #0:0 (hevc) -> settb:default
  Stream #1:0 (h264) -> settb:default
  ssim:default -> Stream #0:0 (wrapped_avframe)
  Stream #0:1 -> #0:1 (aac (native) -> pcm_s16le (native))
[swscaler @ 000001fc57aeffc0] No accelerated colorspace conversion found from yuv420p to bgr48le.
[swscaler @ 000001fc57c55c40] No accelerated colorspace conversion found from yuv420p to bgr48le.
[swscaler @ 000001fc57e20400] No accelerated colorspace conversion found from yuv420p to bgr48le.
[swscaler @ 000001fc57f1aa80] No accelerated colorspace conversion found from yuv420p to bgr48le.
[swscaler @ 000001fc57f54a40] No accelerated colorspace conversion found from yuv420p to bgr48le.
[swscaler @ 000001fc57fe5c40] No accelerated colorspace conversion found from yuv420p to bgr48le.
[swscaler @ 000001fc58043040] No accelerated colorspace conversion found from yuv420p to bgr48le.
[swscaler @ 000001fc580a9040] No accelerated colorspace conversion found from yuv420p to bgr48le.
[swscaler @ 000001fc58115740] No accelerated colorspace conversion found from yuv420p to bgr48le.
[swscaler @ 000001fc5819b040] No accelerated colorspace conversion found from yuv420p to bgr48le.
[swscaler @ 000001fc5820d040] No accelerated colorspace conversion found from yuv420p to bgr48le.
[swscaler @ 000001fc5826a040] No accelerated colorspace conversion found from yuv420p to bgr48le.
[swscaler @ 000001fc582d2040] No accelerated colorspace conversion found from yuv420p to bgr48le.
[swscaler @ 000001fc5835f040] No accelerated colorspace conversion found from yuv420p to bgr48le.
[swscaler @ 000001fc583c5040] No accelerated colorspace conversion found from yuv420p to bgr48le.
[swscaler @ 000001fc5843d040] No accelerated colorspace conversion found from yuv420p to bgr48le.
Output #0, null, to 'pipe:':
  Metadata:
    encoder         : Lavf61.7.100
  Stream #0:0: Video: wrapped_avframe, yuv420p10le(tv, bt709, progressive), 1280x720 [SAR 1:1 DAR 16:9], q=2-31, 200 kb/s, 23.98 fps, 23.98 tbn
      Metadata:
        encoder         : Lavc61.19.100 wrapped_avframe
  Stream #0:1(rus): Audio: pcm_s16le, 48000 Hz, stereo, s16, 1536 kb/s (default)
      Metadata:
        title           : SHIZA Project MVO
        _STATISTICS_TAGS: BPS DURATION NUMBER_OF_FRAMES NUMBER_OF_BYTES
        BPS             : 192050
        DURATION        : 00:23:57.120000000
        NUMBER_OF_FRAMES: 67366
        NUMBER_OF_BYTES : 34499974
        _STATISTICS_WRITING_APP: mkvpropedit v66.0.0 ('Josie') 64-bit
        _STATISTICS_WRITING_DATE_UTC: 2025-07-19 13:06:45
        encoder         : Lavc61.19.100 pcm_s16le
frame=   81 fps=0.0 q=-0.0 size=N/A time=00:00:03.37 bitrate=N/A speed=6.43x    frame=  173 fps=168 q=-0.0 size=N/A time=00:00:07.21 bitrate=N/A speed=7.01x    frame=  273 fps=175 q=-0.0 size=N/A time=00:00:11.38 bitrate=N/A speed=7.32x    frame=  366 fps=177 q=-0.0 size=N/A time=00:00:15.26 bitrate=N/A speed= 7.4x    frame=  456 fps=176 q=-0.0 size=N/A time=00:00:19.01 bitrate=N/A speed=7.36x    frame=  549 fps=178 q=-0.0 size=N/A time=00:00:22.89 bitrate=N/A speed= 7.4x    frame=  645 fps=178 q=-0.0 size=N/A time=00:00:26.90 bitrate=N/A speed=7.43x    frame=  734 fps=178 q=-0.0 size=N/A time=00:00:30.61 bitrate=N/A speed=7.42x    frame=  824 fps=177 q=-0.0 size=N/A time=00:00:34.36 bitrate=N/A speed=7.39x    frame=  925 fps=179 q=-0.0 size=N/A time=00:00:38.58 bitrate=N/A speed=7.48x    frame= 1022 fps=180 q=-0.0 size=N/A time=00:00:42.62 bitrate=N/A speed=7.51x    frame= 1116 fps=180 q=-0.0 size=N/A time=00:00:46.54 bitrate=N/A speed=7.52x    frame= 1213 fps=181 q=-0.0 size=N/A time=00:00:50.59 bitrate=N/A speed=7.54x    frame= 1309 fps=181 q=-0.0 size=N/A time=00:00:54.59 bitrate=N/A speed=7.55x    frame= 1395 fps=180 q=-0.0 size=N/A time=00:00:58.18 bitrate=N/A speed= 7.5x    frame= 1494 fps=181 q=-0.0 size=N/A time=00:01:02.31 bitrate=N/A speed=7.53x    frame= 1587 fps=181 q=-0.0 size=N/A time=00:01:06.19 bitrate=N/A speed=7.53x    frame= 1679 fps=181 q=-0.0 size=N/A time=00:01:10.02 bitrate=N/A speed=7.53x    frame= 1772 fps=180 q=-0.0 size=N/A time=00:01:13.90 bitrate=N/A speed=7.53x    frame= 1859 fps=180 q=-0.0 size=N/A time=00:01:17.53 bitrate=N/A speed= 7.5x    frame= 1960 fps=180 q=-0.0 size=N/A time=00:01:21.74 bitrate=N/A speed=7.52x    frame= 2059 fps=181 q=-0.0 size=N/A time=00:01:25.87 bitrate=N/A speed=7.54x    frame= 2148 fps=181 q=-0.0 size=N/A time=00:01:29.58 bitrate=N/A speed=7.53x    frame= 2249 fps=181 q=-0.0 size=N/A time=00:01:33.80 bitrate=N/A speed=7.56x    frame= 2339 fps=181 q=-0.0 size=N/A time=00:01:37.55 bitrate=N/A speed=7.55x    frame= 2439 fps=181 q=-0.0 size=N/A time=00:01:41.72 bitrate=N/A speed=7.57x    frame= 2533 fps=182 q=-0.0 size=N/A time=00:01:45.64 bitrate=N/A speed=7.57x    frame= 2623 fps=181 q=-0.0 size=N/A time=00:01:49.40 bitrate=N/A speed=7.56x    frame= 2725 fps=182 q=-0.0 size=N/A time=00:01:53.65 bitrate=N/A speed=7.58x    frame= 2824 fps=182 q=-0.0 size=N/A time=00:01:57.78 bitrate=N/A speed= 7.6x    frame= 2923 fps=182 q=-0.0 size=N/A time=00:02:01.91 bitrate=N/A speed=7.61x    frame= 3015 fps=182 q=-0.0 size=N/A time=00:02:05.75 bitrate=N/A speed= 7.6x    frame= 3107 fps=182 q=-0.0 size=N/A time=00:02:09.58 bitrate=N/A speed= 7.6x    frame= 3199 fps=182 q=-0.0 size=N/A time=00:02:13.42 bitrate=N/A speed= 7.6x    frame= 3293 fps=182 q=-0.0 size=N/A time=00:02:17.34 bitrate=N/A speed=7.59x    frame= 3388 fps=182 q=-0.0 size=N/A time=00:02:21.30 bitrate=N/A speed= 7.6x    frame= 3485 fps=182 q=-0.0 size=N/A time=00:02:25.35 bitrate=N/A speed= 7.6x    frame= 3573 fps=182 q=-0.0 size=N/A time=00:02:29.02 bitrate=N/A speed=7.59x    frame= 3671 fps=182 q=-0.0 size=N/A time=00:02:33.11 bitrate=N/A speed= 7.6x    frame= 3765 fps=182 q=-0.0 size=N/A time=00:02:37.03 bitrate=N/A speed= 7.6x    frame= 3858 fps=182 q=-0.0 size=N/A time=00:02:40.91 bitrate=N/A speed= 7.6x    frame= 3952 fps=182 q=-0.0 size=N/A time=00:02:44.83 bitrate=N/A speed= 7.6x    frame= 4045 fps=182 q=-0.0 size=N/A time=00:02:48.71 bitrate=N/A speed= 7.6x    frame= 4134 fps=182 q=-0.0 size=N/A time=00:02:52.42 bitrate=N/A speed=7.59x    frame= 4226 fps=182 q=-0.0 size=N/A time=00:02:56.25 bitrate=N/A speed=7.59x    frame= 4322 fps=182 q=-0.0 size=N/A time=00:03:00.26 bitrate=N/A speed=7.59x    frame= 4409 fps=182 q=-0.0 size=N/A time=00:03:03.89 bitrate=N/A speed=7.58x    frame= 4490 fps=181 q=-0.0 size=N/A time=00:03:07.27 bitrate=N/A speed=7.56x    frame= 4588 fps=181 q=-0.0 size=N/A time=00:03:11.35 bitrate=N/A speed=7.56x    frame= 4669 fps=181 q=-0.0 size=N/A time=00:03:14.73 bitrate=N/A speed=7.54x    frame= 4772 fps=181 q=-0.0 size=N/A time=00:03:19.03 bitrate=N/A speed=7.56x    frame= 4864 fps=181 q=-0.0 size=N/A time=00:03:22.86 bitrate=N/A speed=7.56x    frame= 4960 fps=181 q=-0.0 size=N/A time=00:03:26.87 bitrate=N/A speed=7.56x    frame= 5051 fps=181 q=-0.0 size=N/A time=00:03:30.66 bitrate=N/A speed=7.56x    frame= 5150 fps=181 q=-0.0 size=N/A time=00:03:34.79 bitrate=N/A speed=7.56x    frame= 5240 fps=181 q=-0.0 size=N/A time=00:03:38.55 bitrate=N/A speed=7.56x    frame= 5331 fps=181 q=-0.0 size=N/A time=00:03:42.34 bitrate=N/A speed=7.56x    frame= 5426 fps=181 q=-0.0 size=N/A time=00:03:46.30 bitrate=N/A speed=7.56x    frame= 5525 fps=181 q=-0.0 size=N/A time=00:03:50.43 bitrate=N/A speed=7.57x    frame= 5616 fps=181 q=-0.0 size=N/A time=00:03:54.23 bitrate=N/A speed=7.56x    frame= 5709 fps=181 q=-0.0 size=N/A time=00:03:58.11 bitrate=N/A speed=7.56x    frame= 5804 fps=181 q=-0.0 size=N/A time=00:04:02.07 bitrate=N/A speed=7.56x    frame= 5903 fps=182 q=-0.0 size=N/A time=00:04:06.20 bitrate=N/A speed=7.57x    frame= 5991 fps=181 q=-0.0 size=N/A time=00:04:09.87 bitrate=N/A speed=7.56x    frame= 6071 fps=181 q=-0.0 size=N/A time=00:04:13.21 bitrate=N/A speed=7.55x    frame= 6180 fps=181 q=-0.0 size=N/A time=00:04:17.75 bitrate=N/A speed=7.57x    frame= 6276 fps=182 q=-0.0 size=N/A time=00:04:21.76 bitrate=N/A speed=7.57x    frame= 6374 fps=182 q=-0.0 size=N/A time=00:04:25.84 bitrate=N/A speed=7.57x    frame= 6469 fps=182 q=-0.0 size=N/A time=00:04:29.81 bitrate=N/A speed=7.58x    frame= 6565 fps=182 q=-0.0 size=N/A time=00:04:33.81 bitrate=N/A speed=7.58x    frame= 6656 fps=182 q=-0.0 size=N/A time=00:04:37.61 bitrate=N/A speed=7.58x    frame= 6751 fps=182 q=-0.0 size=N/A time=00:04:41.57 bitrate=N/A speed=7.58x    frame= 6845 fps=182 q=-0.0 size=N/A time=00:04:45.49 bitrate=N/A speed=7.58x    frame= 6933 fps=182 q=-0.0 size=N/A time=00:04:49.16 bitrate=N/A speed=7.57x    frame= 7036 fps=182 q=-0.0 size=N/A time=00:04:53.45 bitrate=N/A speed=7.58x    frame= 7118 fps=181 q=-0.0 size=N/A time=00:04:56.87 bitrate=N/A speed=7.57x    frame= 7225 fps=182 q=-0.0 size=N/A time=00:05:01.34 bitrate=N/A speed=7.58x    frame= 7310 fps=182 q=-0.0 size=N/A time=00:05:04.88 bitrate=N/A speed=7.58x    frame= 7409 fps=182 q=-0.0 size=N/A time=00:05:09.01 bitrate=N/A speed=7.58x    frame= 7499 fps=182 q=-0.0 size=N/A time=00:05:12.77 bitrate=N/A speed=7.57x    frame= 7598 fps=182 q=-0.0 size=N/A time=00:05:16.89 bitrate=N/A speed=7.58x    frame= 7694 fps=182 q=-0.0 size=N/A time=00:05:20.90 bitrate=N/A speed=7.58x    frame= 7788 fps=182 q=-0.0 size=N/A time=00:05:24.82 bitrate=N/A speed=7.58x    frame= 7884 fps=182 q=-0.0 size=N/A time=00:05:28.82 bitrate=N/A speed=7.59x    frame= 7980 fps=182 q=-0.0 size=N/A time=00:05:32.83 bitrate=N/A speed=7.59x    frame= 8076 fps=182 q=-0.0 size=N/A time=00:05:36.83 bitrate=N/A speed=7.59x    frame= 8162 fps=182 q=-0.0 size=N/A time=00:05:40.42 bitrate=N/A speed=7.58x    frame= 8265 fps=182 q=-0.0 size=N/A time=00:05:44.71 bitrate=N/A speed=7.59x    frame= 8351 fps=182 q=-0.0 size=N/A time=00:05:48.30 bitrate=N/A speed=7.58x    frame= 8452 fps=182 q=-0.0 size=N/A time=00:05:52.51 bitrate=N/A speed=7.59x    frame= 8547 fps=182 q=-0.0 size=N/A time=00:05:56.48 bitrate=N/A speed=7.59x    frame= 8639 fps=182 q=-0.0 size=N/A time=00:06:00.31 bitrate=N/A speed=7.59x    frame= 8724 fps=182 q=-0.0 size=N/A time=00:06:03.86 bitrate=N/A speed=7.58x    frame= 8826 fps=182 q=-0.0 size=N/A time=00:06:08.11 bitrate=N/A speed=7.59x    frame= 8917 fps=182 q=-0.0 size=N/A time=00:06:11.91 bitrate=N/A speed=7.59x    frame= 9013 fps=182 q=-0.0 size=N/A time=00:06:15.91 bitrate=N/A speed=7.59x    frame= 9106 fps=182 q=-0.0 size=N/A time=00:06:19.79 bitrate=N/A speed=7.59x    frame= 9198 fps=182 q=-0.0 size=N/A time=00:06:23.63 bitrate=N/A speed=7.59x    frame= 9300 fps=182 q=-0.0 size=N/A time=00:06:27.88 bitrate=N/A speed=7.59x    frame= 9392 fps=182 q=-0.0 size=N/A time=00:06:31.72 bitrate=N/A speed=7.59x    frame= 9488 fps=182 q=-0.0 size=N/A time=00:06:35.72 bitrate=N/A speed=7.59x    frame= 9586 fps=182 q=-0.0 size=N/A time=00:06:39.81 bitrate=N/A speed=7.59x    frame= 9682 fps=182 q=-0.0 size=N/A time=00:06:43.82 bitrate=N/A speed= 7.6x    frame= 9779 fps=182 q=-0.0 size=N/A time=00:06:47.86 bitrate=N/A speed= 7.6x    frame= 9871 fps=182 q=-0.0 size=N/A time=00:06:51.70 bitrate=N/A speed=7.59x    frame= 9957 fps=182 q=-0.0 size=N/A time=00:06:55.28 bitrate=N/A speed=7.59x    frame=10062 fps=182 q=-0.0 size=N/A time=00:06:59.66 bitrate=N/A speed= 7.6x    frame=10156 fps=182 q=-0.0 size=N/A time=00:07:03.58 bitrate=N/A speed= 7.6x    frame=10252 fps=182 q=-0.0 size=N/A time=00:07:07.59 bitrate=N/A speed= 7.6x    frame=10349 fps=182 q=-0.0 size=N/A time=00:07:11.63 bitrate=N/A speed= 7.6x    frame=10438 fps=182 q=-0.0 size=N/A time=00:07:15.35 bitrate=N/A speed= 7.6x    frame=10541 fps=182 q=-0.0 size=N/A time=00:07:19.64 bitrate=N/A speed= 7.6x    frame=10635 fps=182 q=-0.0 size=N/A time=00:07:23.56 bitrate=N/A speed= 7.6x    frame=10735 fps=182 q=-0.0 size=N/A time=00:07:27.73 bitrate=N/A speed=7.61x    frame=10824 fps=182 q=-0.0 size=N/A time=00:07:31.45 bitrate=N/A speed=7.61x    frame=10916 fps=182 q=-0.0 size=N/A time=00:07:35.28 bitrate=N/A speed= 7.6x    frame=11004 fps=182 q=-0.0 size=N/A time=00:07:38.95 bitrate=N/A speed= 7.6x    frame=11103 fps=182 q=-0.0 size=N/A time=00:07:43.08 bitrate=N/A speed= 7.6x    frame=11205 fps=182 q=-0.0 size=N/A time=00:07:47.34 bitrate=N/A speed=7.61x    frame=11303 fps=182 q=-0.0 size=N/A time=00:07:51.42 bitrate=N/A speed=7.61x    frame=11402 fps=183 q=-0.0 size=N/A time=00:07:55.55 bitrate=N/A speed=7.61x    frame=11488 fps=182 q=-0.0 size=N/A time=00:07:59.14 bitrate=N/A speed=7.61x    frame=11601 fps=183 q=-0.0 size=N/A time=00:08:03.85 bitrate=N/A speed=7.62x    frame=11697 fps=183 q=-0.0 size=N/A time=00:08:07.86 bitrate=N/A speed=7.62x    frame=11794 fps=183 q=-0.0 size=N/A time=00:08:11.90 bitrate=N/A speed=7.62x    frame=11881 fps=183 q=-0.0 size=N/A time=00:08:15.53 bitrate=N/A speed=7.62x    frame=11982 fps=183 q=-0.0 size=N/A time=00:08:19.74 bitrate=N/A speed=7.62x    frame=12071 fps=183 q=-0.0 size=N/A time=00:08:23.46 bitrate=N/A speed=7.62x    frame=12169 fps=183 q=-0.0 size=N/A time=00:08:27.54 bitrate=N/A speed=7.62x    frame=12268 fps=183 q=-0.0 size=N/A time=00:08:31.67 bitrate=N/A speed=7.62x    frame=12365 fps=183 q=-0.0 size=N/A time=00:08:35.72 bitrate=N/A speed=7.63x    frame=12459 fps=183 q=-0.0 size=N/A time=00:08:39.64 bitrate=N/A speed=7.62x    frame=12557 fps=183 q=-0.0 size=N/A time=00:08:43.73 bitrate=N/A speed=7.63x    frame=12646 fps=183 q=-0.0 size=N/A time=00:08:47.44 bitrate=N/A speed=7.62x    frame=12752 fps=183 q=-0.0 size=N/A time=00:08:51.86 bitrate=N/A speed=7.63x    frame=12842 fps=183 q=-0.0 size=N/A time=00:08:55.61 bitrate=N/A speed=7.63x    frame=12943 fps=183 q=-0.0 size=N/A time=00:08:59.83 bitrate=N/A speed=7.63x    frame=13037 fps=183 q=-0.0 size=N/A time=00:09:03.75 bitrate=N/A speed=7.63x    frame=13118 fps=183 q=-0.0 size=N/A time=00:09:07.12 bitrate=N/A speed=7.62x    frame=13227 fps=183 q=-0.0 size=N/A time=00:09:11.67 bitrate=N/A speed=7.63x    frame=13324 fps=183 q=-0.0 size=N/A time=00:09:15.72 bitrate=N/A speed=7.63x    frame=13418 fps=183 q=-0.0 size=N/A time=00:09:19.64 bitrate=N/A speed=7.64x    frame=13516 fps=183 q=-0.0 size=N/A time=00:09:23.72 bitrate=N/A speed=7.64x    frame=13607 fps=183 q=-0.0 size=N/A time=00:09:27.52 bitrate=N/A speed=7.64x    frame=13690 fps=183 q=-0.0 size=N/A time=00:09:30.98 bitrate=N/A speed=7.63x    frame=13785 fps=183 q=-0.0 size=N/A time=00:09:34.94 bitrate=N/A speed=7.63x    frame=13875 fps=183 q=-0.0 size=N/A time=00:09:38.70 bitrate=N/A speed=7.63x    frame=13968 fps=183 q=-0.0 size=N/A time=00:09:42.58 bitrate=N/A speed=7.63x    frame=14063 fps=183 q=-0.0 size=N/A time=00:09:46.54 bitrate=N/A speed=7.63x    frame=14145 fps=183 q=-0.0 size=N/A time=00:09:49.96 bitrate=N/A speed=7.62x    frame=14247 fps=183 q=-0.0 size=N/A time=00:09:54.21 bitrate=N/A speed=7.62x    frame=14341 fps=183 q=-0.0 size=N/A time=00:09:58.13 bitrate=N/A speed=7.62x    frame=14428 fps=183 q=-0.0 size=N/A time=00:10:01.76 bitrate=N/A speed=7.62x    frame=14524 fps=183 q=-0.0 size=N/A time=00:10:05.77 bitrate=N/A speed=7.62x    frame=14620 fps=183 q=-0.0 size=N/A time=00:10:09.77 bitrate=N/A speed=7.62x    frame=14715 fps=183 q=-0.0 size=N/A time=00:10:13.73 bitrate=N/A speed=7.62x    frame=14812 fps=183 q=-0.0 size=N/A time=00:10:17.78 bitrate=N/A speed=7.62x    frame=14893 fps=183 q=-0.0 size=N/A time=00:10:21.16 bitrate=N/A speed=7.62x    frame=14991 fps=183 q=-0.0 size=N/A time=00:10:25.24 bitrate=N/A speed=7.62x    frame=15090 fps=183 q=-0.0 size=N/A time=00:10:29.37 bitrate=N/A speed=7.62x    frame=15185 fps=183 q=-0.0 size=N/A time=00:10:33.34 bitrate=N/A speed=7.62x    frame=15279 fps=183 q=-0.0 size=N/A time=00:10:37.26 bitrate=N/A speed=7.62x    frame=15374 fps=183 q=-0.0 size=N/A time=00:10:41.22 bitrate=N/A speed=7.62x    frame=15465 fps=183 q=-0.0 size=N/A time=00:10:45.01 bitrate=N/A speed=7.62x    frame=15554 fps=183 q=-0.0 size=N/A time=00:10:48.73 bitrate=N/A speed=7.62x    frame=15648 fps=183 q=-0.0 size=N/A time=00:10:52.65 bitrate=N/A speed=7.62x    frame=15743 fps=183 q=-0.0 size=N/A time=00:10:56.61 bitrate=N/A speed=7.62x    frame=15833 fps=183 q=-0.0 size=N/A time=00:11:00.36 bitrate=N/A speed=7.61x    frame=15933 fps=183 q=-0.0 size=N/A time=00:11:04.53 bitrate=N/A speed=7.62x    frame=16034 fps=183 q=-0.0 size=N/A time=00:11:08.75 bitrate=N/A speed=7.62x    frame=16126 fps=183 q=-0.0 size=N/A time=00:11:12.58 bitrate=N/A speed=7.62x    frame=16227 fps=183 q=-0.0 size=N/A time=00:11:16.80 bitrate=N/A speed=7.62x    frame=16322 fps=183 q=-0.0 size=N/A time=00:11:20.76 bitrate=N/A speed=7.62x    frame=16417 fps=183 q=-0.0 size=N/A time=00:11:24.72 bitrate=N/A speed=7.62x    frame=16517 fps=183 q=-0.0 size=N/A time=00:11:28.89 bitrate=N/A speed=7.63x    frame=16613 fps=183 q=-0.0 size=N/A time=00:11:32.90 bitrate=N/A speed=7.63x    frame=16711 fps=183 q=-0.0 size=N/A time=00:11:36.98 bitrate=N/A speed=7.63x    frame=16798 fps=183 q=-0.0 size=N/A time=00:11:40.61 bitrate=N/A speed=7.63x    frame=16904 fps=183 q=-0.0 size=N/A time=00:11:45.03 bitrate=N/A speed=7.63x    frame=17009 fps=183 q=-0.0 size=N/A time=00:11:49.41 bitrate=N/A speed=7.64x    frame=17104 fps=183 q=-0.0 size=N/A time=00:11:53.37 bitrate=N/A speed=7.64x    frame=17201 fps=183 q=-0.0 size=N/A time=00:11:57.42 bitrate=N/A speed=7.64x    frame=17290 fps=183 q=-0.0 size=N/A time=00:12:01.13 bitrate=N/A speed=7.63x    frame=17390 fps=183 q=-0.0 size=N/A time=00:12:05.30 bitrate=N/A speed=7.64x    frame=17474 fps=183 q=-0.0 size=N/A time=00:12:08.81 bitrate=N/A speed=7.63x    frame=17570 fps=183 q=-0.0 size=N/A time=00:12:12.81 bitrate=N/A speed=7.63x    frame=17670 fps=183 q=-0.0 size=N/A time=00:12:16.98 bitrate=N/A speed=7.64x    frame=17773 fps=183 q=-0.0 size=N/A time=00:12:21.28 bitrate=N/A speed=7.64x    frame=17863 fps=183 q=-0.0 size=N/A time=00:12:25.03 bitrate=N/A speed=7.64x    frame=17965 fps=183 q=-0.0 size=N/A time=00:12:29.29 bitrate=N/A speed=7.64x    frame=18054 fps=183 q=-0.0 size=N/A time=00:12:33.00 bitrate=N/A speed=7.64x    frame=18155 fps=183 q=-0.0 size=N/A time=00:12:37.21 bitrate=N/A speed=7.64x    frame=18249 fps=183 q=-0.0 size=N/A time=00:12:41.13 bitrate=N/A speed=7.64x    frame=18348 fps=183 q=-0.0 size=N/A time=00:12:45.26 bitrate=N/A speed=7.64x    frame=18437 fps=183 q=-0.0 size=N/A time=00:12:48.97 bitrate=N/A speed=7.64x    frame=18544 fps=183 q=-0.0 size=N/A time=00:12:53.43 bitrate=N/A speed=7.64x    frame=18639 fps=183 q=-0.0 size=N/A time=00:12:57.40 bitrate=N/A speed=7.65x    frame=18737 fps=183 q=-0.0 size=N/A time=00:13:01.48 bitrate=N/A speed=7.65x    frame=18826 fps=183 q=-0.0 size=N/A time=00:13:05.20 bitrate=N/A speed=7.64x    frame=18918 fps=183 q=-0.0 size=N/A time=00:13:09.03 bitrate=N/A speed=7.64x    frame=19020 fps=183 q=-0.0 size=N/A time=00:13:13.29 bitrate=N/A speed=7.65x    frame=19118 fps=183 q=-0.0 size=N/A time=00:13:17.37 bitrate=N/A speed=7.65x    frame=19212 fps=183 q=-0.0 size=N/A time=00:13:21.30 bitrate=N/A speed=7.65x    frame=19306 fps=183 q=-0.0 size=N/A time=00:13:25.22 bitrate=N/A speed=7.65x    frame=19397 fps=183 q=-0.0 size=N/A time=00:13:29.01 bitrate=N/A speed=7.65x    frame=19492 fps=183 q=-0.0 size=N/A time=00:13:32.97 bitrate=N/A speed=7.65x    frame=19589 fps=183 q=-0.0 size=N/A time=00:13:37.02 bitrate=N/A speed=7.65x    frame=19683 fps=183 q=-0.0 size=N/A time=00:13:40.94 bitrate=N/A speed=7.65x    frame=19770 fps=183 q=-0.0 size=N/A time=00:13:44.57 bitrate=N/A speed=7.64x    frame=19868 fps=183 q=-0.0 size=N/A time=00:13:48.66 bitrate=N/A speed=7.65x    frame=19961 fps=183 q=-0.0 size=N/A time=00:13:52.54 bitrate=N/A speed=7.64x    frame=20056 fps=183 q=-0.0 size=N/A time=00:13:56.50 bitrate=N/A speed=7.64x    frame=20147 fps=183 q=-0.0 size=N/A time=00:14:00.29 bitrate=N/A speed=7.64x    frame=20244 fps=183 q=-0.0 size=N/A time=00:14:04.34 bitrate=N/A speed=7.64x    frame=20324 fps=183 q=-0.0 size=N/A time=00:14:07.68 bitrate=N/A speed=7.64x    frame=20433 fps=183 q=-0.0 size=N/A time=00:14:12.22 bitrate=N/A speed=7.64x    frame=20527 fps=183 q=-0.0 size=N/A time=00:14:16.14 bitrate=N/A speed=7.64x    frame=20627 fps=183 q=-0.0 size=N/A time=00:14:20.31 bitrate=N/A speed=7.64x    frame=20722 fps=183 q=-0.0 size=N/A time=00:14:24.28 bitrate=N/A speed=7.64x    frame=20816 fps=183 q=-0.0 size=N/A time=00:14:28.20 bitrate=N/A speed=7.64x    frame=20909 fps=183 q=-0.0 size=N/A time=00:14:32.07 bitrate=N/A speed=7.64x    frame=21009 fps=183 q=-0.0 size=N/A time=00:14:36.25 bitrate=N/A speed=7.65x    frame=21108 fps=183 q=-0.0 size=N/A time=00:14:40.37 bitrate=N/A speed=7.65x    frame=21200 fps=183 q=-0.0 size=N/A time=00:14:44.21 bitrate=N/A speed=7.65x    frame=21298 fps=183 q=-0.0 size=N/A time=00:14:48.30 bitrate=N/A speed=7.65x    frame=21388 fps=183 q=-0.0 size=N/A time=00:14:52.05 bitrate=N/A speed=7.65x    frame=21491 fps=183 q=-0.0 size=N/A time=00:14:56.35 bitrate=N/A speed=7.65x    frame=21580 fps=183 q=-0.0 size=N/A time=00:15:00.06 bitrate=N/A speed=7.65x    frame=21675 fps=183 q=-0.0 size=N/A time=00:15:04.02 bitrate=N/A speed=7.65x    frame=21770 fps=183 q=-0.0 size=N/A time=00:15:07.99 bitrate=N/A speed=7.65x    frame=21872 fps=183 q=-0.0 size=N/A time=00:15:12.24 bitrate=N/A speed=7.65x    frame=21949 fps=183 q=-0.0 size=N/A time=00:15:15.45 bitrate=N/A speed=7.64x    frame=22056 fps=183 q=-0.0 size=N/A time=00:15:19.91 bitrate=N/A speed=7.65x    frame=22151 fps=183 q=-0.0 size=N/A time=00:15:23.88 bitrate=N/A speed=7.65x    frame=22239 fps=183 q=-0.0 size=N/A time=00:15:27.55 bitrate=N/A speed=7.65x    frame=22333 fps=183 q=-0.0 size=N/A time=00:15:31.47 bitrate=N/A speed=7.65x    frame=22429 fps=183 q=-0.0 size=N/A time=00:15:35.47 bitrate=N/A speed=7.65x    frame=22522 fps=183 q=-0.0 size=N/A time=00:15:39.35 bitrate=N/A speed=7.65x    frame=22614 fps=183 q=-0.0 size=N/A time=00:15:43.19 bitrate=N/A speed=7.65x    frame=22708 fps=183 q=-0.0 size=N/A time=00:15:47.11 bitrate=N/A speed=7.65x    frame=22804 fps=183 q=-0.0 size=N/A time=00:15:51.11 bitrate=N/A speed=7.65x    frame=22906 fps=183 q=-0.0 size=N/A time=00:15:55.37 bitrate=N/A speed=7.65x    frame=22991 fps=183 q=-0.0 size=N/A time=00:15:58.91 bitrate=N/A speed=7.64x    frame=23093 fps=183 q=-0.0 size=N/A time=00:16:03.17 bitrate=N/A speed=7.65x    frame=23187 fps=183 q=-0.0 size=N/A time=00:16:07.09 bitrate=N/A speed=7.65x    frame=23277 fps=183 q=-0.0 size=N/A time=00:16:10.84 bitrate=N/A speed=7.64x    frame=23382 fps=183 q=-0.0 size=N/A time=00:16:15.22 bitrate=N/A speed=7.65x    frame=23481 fps=183 q=-0.0 size=N/A time=00:16:19.35 bitrate=N/A speed=7.65x    frame=23579 fps=183 q=-0.0 size=N/A time=00:16:23.44 bitrate=N/A speed=7.65x    frame=23677 fps=183 q=-0.0 size=N/A time=00:16:27.52 bitrate=N/A speed=7.65x    frame=23773 fps=183 q=-0.0 size=N/A time=00:16:31.53 bitrate=N/A speed=7.65x    frame=23869 fps=183 q=-0.0 size=N/A time=00:16:35.53 bitrate=N/A speed=7.65x    frame=23964 fps=183 q=-0.0 size=N/A time=00:16:39.49 bitrate=N/A speed=7.65x    frame=24053 fps=183 q=-0.0 size=N/A time=00:16:43.21 bitrate=N/A speed=7.65x    frame=24133 fps=183 q=-0.0 size=N/A time=00:16:46.54 bitrate=N/A speed=7.65x    frame=24239 fps=183 q=-0.0 size=N/A time=00:16:50.96 bitrate=N/A speed=7.65x    frame=24331 fps=183 q=-0.0 size=N/A time=00:16:54.80 bitrate=N/A speed=7.65x    frame=24428 fps=183 q=-0.0 size=N/A time=00:16:58.85 bitrate=N/A speed=7.65x    frame=24528 fps=183 q=-0.0 size=N/A time=00:17:03.02 bitrate=N/A speed=7.65x    frame=24622 fps=183 q=-0.0 size=N/A time=00:17:06.94 bitrate=N/A speed=7.65x    frame=24715 fps=183 q=-0.0 size=N/A time=00:17:10.82 bitrate=N/A speed=7.65x    frame=24814 fps=183 q=-0.0 size=N/A time=00:17:14.95 bitrate=N/A speed=7.65x    frame=24905 fps=183 q=-0.0 size=N/A time=00:17:18.74 bitrate=N/A speed=7.65x    frame=24996 fps=183 q=-0.0 size=N/A time=00:17:22.54 bitrate=N/A speed=7.65x    frame=25095 fps=183 q=-0.0 size=N/A time=00:17:26.67 bitrate=N/A speed=7.65x    frame=25195 fps=183 q=-0.0 size=N/A time=00:17:30.88 bitrate=N/A speed=7.65x    frame=25287 fps=183 q=-0.0 size=N/A time=00:17:34.67 bitrate=N/A speed=7.65x    frame=25391 fps=184 q=-0.0 size=N/A time=00:17:39.01 bitrate=N/A speed=7.66x    frame=25484 fps=184 q=-0.0 size=N/A time=00:17:42.89 bitrate=N/A speed=7.65x    frame=25582 fps=184 q=-0.0 size=N/A time=00:17:46.98 bitrate=N/A speed=7.66x    frame=25668 fps=184 q=-0.0 size=N/A time=00:17:50.56 bitrate=N/A speed=7.65x    frame=25776 fps=184 q=-0.0 size=N/A time=00:17:55.07 bitrate=N/A speed=7.66x    frame=25871 fps=184 q=-0.0 size=N/A time=00:17:59.03 bitrate=N/A speed=7.66x    frame=25962 fps=184 q=-0.0 size=N/A time=00:18:02.83 bitrate=N/A speed=7.66x    frame=26059 fps=184 q=-0.0 size=N/A time=00:18:06.87 bitrate=N/A speed=7.66x    frame=26151 fps=184 q=-0.0 size=N/A time=00:18:10.71 bitrate=N/A speed=7.66x    frame=26247 fps=184 q=-0.0 size=N/A time=00:18:14.71 bitrate=N/A speed=7.66x    frame=26342 fps=184 q=-0.0 size=N/A time=00:18:18.68 bitrate=N/A speed=7.66x    frame=26437 fps=184 q=-0.0 size=N/A time=00:18:22.64 bitrate=N/A speed=7.66x    frame=26523 fps=184 q=-0.0 size=N/A time=00:18:26.23 bitrate=N/A speed=7.65x    frame=26616 fps=184 q=-0.0 size=N/A time=00:18:30.10 bitrate=N/A speed=7.65x    frame=26713 fps=184 q=-0.0 size=N/A time=00:18:34.15 bitrate=N/A speed=7.65x    frame=26804 fps=184 q=-0.0 size=N/A time=00:18:37.95 bitrate=N/A speed=7.65x    frame=26889 fps=183 q=-0.0 size=N/A time=00:18:41.49 bitrate=N/A speed=7.65x    frame=26988 fps=183 q=-0.0 size=N/A time=00:18:45.62 bitrate=N/A speed=7.65x    frame=27076 fps=183 q=-0.0 size=N/A time=00:18:49.29 bitrate=N/A speed=7.65x    frame=27168 fps=183 q=-0.0 size=N/A time=00:18:53.13 bitrate=N/A speed=7.65x    frame=27259 fps=183 q=-0.0 size=N/A time=00:18:56.92 bitrate=N/A speed=7.65x    frame=27350 fps=183 q=-0.0 size=N/A time=00:19:00.72 bitrate=N/A speed=7.65x    frame=27436 fps=183 q=-0.0 size=N/A time=00:19:04.30 bitrate=N/A speed=7.65x    frame=27529 fps=183 q=-0.0 size=N/A time=00:19:08.18 bitrate=N/A speed=7.64x    frame=27628 fps=183 q=-0.0 size=N/A time=00:19:12.31 bitrate=N/A speed=7.65x    frame=27723 fps=183 q=-0.0 size=N/A time=00:19:16.28 bitrate=N/A speed=7.65x    frame=27814 fps=183 q=-0.0 size=N/A time=00:19:20.07 bitrate=N/A speed=7.65x    frame=27903 fps=183 q=-0.0 size=N/A time=00:19:23.78 bitrate=N/A speed=7.64x    frame=27992 fps=183 q=-0.0 size=N/A time=00:19:27.49 bitrate=N/A speed=7.64x    frame=28088 fps=183 q=-0.0 size=N/A time=00:19:31.50 bitrate=N/A speed=7.64x    frame=28178 fps=183 q=-0.0 size=N/A time=00:19:35.25 bitrate=N/A speed=7.64x    frame=28266 fps=183 q=-0.0 size=N/A time=00:19:38.92 bitrate=N/A speed=7.64x    frame=28361 fps=183 q=-0.0 size=N/A time=00:19:42.89 bitrate=N/A speed=7.64x    frame=28458 fps=183 q=-0.0 size=N/A time=00:19:46.93 bitrate=N/A speed=7.64x    frame=28549 fps=183 q=-0.0 size=N/A time=00:19:50.73 bitrate=N/A speed=7.64x    frame=28648 fps=183 q=-0.0 size=N/A time=00:19:54.86 bitrate=N/A speed=7.64x    frame=28742 fps=183 q=-0.0 size=N/A time=00:19:58.78 bitrate=N/A speed=7.64x    frame=28826 fps=183 q=-0.0 size=N/A time=00:20:02.28 bitrate=N/A speed=7.64x    frame=28924 fps=183 q=-0.0 size=N/A time=00:20:06.37 bitrate=N/A speed=7.64x    frame=29021 fps=183 q=-0.0 size=N/A time=00:20:10.41 bitrate=N/A speed=7.64x    frame=29112 fps=183 q=-0.0 size=N/A time=00:20:14.21 bitrate=N/A speed=7.64x    frame=29208 fps=183 q=-0.0 size=N/A time=00:20:18.21 bitrate=N/A speed=7.64x    frame=29300 fps=183 q=-0.0 size=N/A time=00:20:22.05 bitrate=N/A speed=7.64x    frame=29390 fps=183 q=-0.0 size=N/A time=00:20:25.80 bitrate=N/A speed=7.64x    frame=29478 fps=183 q=-0.0 size=N/A time=00:20:29.47 bitrate=N/A speed=7.64x    frame=29562 fps=183 q=-0.0 size=N/A time=00:20:32.98 bitrate=N/A speed=7.63x    frame=29654 fps=183 q=-0.0 size=N/A time=00:20:36.81 bitrate=N/A speed=7.63x    frame=29737 fps=183 q=-0.0 size=N/A time=00:20:40.28 bitrate=N/A speed=7.63x    frame=29831 fps=183 q=-0.0 size=N/A time=00:20:44.20 bitrate=N/A speed=7.63x    frame=29920 fps=183 q=-0.0 size=N/A time=00:20:47.91 bitrate=N/A speed=7.63x    frame=30018 fps=183 q=-0.0 size=N/A time=00:20:52.00 bitrate=N/A speed=7.63x    frame=30105 fps=183 q=-0.0 size=N/A time=00:20:55.62 bitrate=N/A speed=7.63x    frame=30195 fps=183 q=-0.0 size=N/A time=00:20:59.38 bitrate=N/A speed=7.63x    frame=30297 fps=183 q=-0.0 size=N/A time=00:21:03.63 bitrate=N/A speed=7.63x    frame=30393 fps=183 q=-0.0 size=N/A time=00:21:07.64 bitrate=N/A speed=7.63x    frame=30488 fps=183 q=-0.0 size=N/A time=00:21:11.60 bitrate=N/A speed=7.63x    frame=30571 fps=183 q=-0.0 size=N/A time=00:21:15.06 bitrate=N/A speed=7.63x    frame=30670 fps=183 q=-0.0 size=N/A time=00:21:19.19 bitrate=N/A speed=7.63x    frame=30761 fps=183 q=-0.0 size=N/A time=00:21:22.99 bitrate=N/A speed=7.63x    frame=30853 fps=183 q=-0.0 size=N/A time=00:21:26.82 bitrate=N/A speed=7.63x    frame=30935 fps=183 q=-0.0 size=N/A time=00:21:30.24 bitrate=N/A speed=7.62x    frame=31037 fps=183 q=-0.0 size=N/A time=00:21:34.50 bitrate=N/A speed=7.62x    frame=31114 fps=183 q=-0.0 size=N/A time=00:21:37.71 bitrate=N/A speed=7.62x    frame=31214 fps=183 q=-0.0 size=N/A time=00:21:41.88 bitrate=N/A speed=7.62x    frame=31302 fps=183 q=-0.0 size=N/A time=00:21:45.55 bitrate=N/A speed=7.62x    frame=31393 fps=183 q=-0.0 size=N/A time=00:21:49.34 bitrate=N/A speed=7.62x    frame=31493 fps=183 q=-0.0 size=N/A time=00:21:53.52 bitrate=N/A speed=7.62x    frame=31585 fps=183 q=-0.0 size=N/A time=00:21:57.35 bitrate=N/A speed=7.62x    frame=31685 fps=183 q=-0.0 size=N/A time=00:22:01.52 bitrate=N/A speed=7.62x    frame=31780 fps=183 q=-0.0 size=N/A time=00:22:05.49 bitrate=N/A speed=7.62x    frame=31875 fps=183 q=-0.0 size=N/A time=00:22:09.45 bitrate=N/A speed=7.62x    frame=31965 fps=183 q=-0.0 size=N/A time=00:22:13.20 bitrate=N/A speed=7.62x    frame=32067 fps=183 q=-0.0 size=N/A time=00:22:17.46 bitrate=N/A speed=7.62x    frame=32159 fps=183 q=-0.0 size=N/A time=00:22:21.29 bitrate=N/A speed=7.62x    frame=32251 fps=183 q=-0.0 size=N/A time=00:22:25.13 bitrate=N/A speed=7.62x    frame=32351 fps=183 q=-0.0 size=N/A time=00:22:29.30 bitrate=N/A speed=7.62x    frame=32441 fps=183 q=-0.0 size=N/A time=00:22:33.06 bitrate=N/A speed=7.62x    frame=32538 fps=183 q=-0.0 size=N/A time=00:22:37.10 bitrate=N/A speed=7.62x    frame=32632 fps=183 q=-0.0 size=N/A time=00:22:41.02 bitrate=N/A speed=7.62x    frame=32725 fps=183 q=-0.0 size=N/A time=00:22:44.90 bitrate=N/A speed=7.62x    frame=32822 fps=183 q=-0.0 size=N/A time=00:22:48.95 bitrate=N/A speed=7.62x    frame=32915 fps=183 q=-0.0 size=N/A time=00:22:52.82 bitrate=N/A speed=7.62x    frame=33002 fps=183 q=-0.0 size=N/A time=00:22:56.45 bitrate=N/A speed=7.62x    frame=33095 fps=183 q=-0.0 size=N/A time=00:23:00.33 bitrate=N/A speed=7.62x    frame=33190 fps=183 q=-0.0 size=N/A time=00:23:04.29 bitrate=N/A speed=7.62x    frame=33285 fps=183 q=-0.0 size=N/A time=00:23:08.26 bitrate=N/A speed=7.62x    frame=33369 fps=183 q=-0.0 size=N/A time=00:23:11.76 bitrate=N/A speed=7.62x    frame=33475 fps=183 q=-0.0 size=N/A time=00:23:16.18 bitrate=N/A speed=7.62x    frame=33564 fps=183 q=-0.0 size=N/A time=00:23:19.89 bitrate=N/A speed=7.62x    frame=33657 fps=183 q=-0.0 size=N/A time=00:23:23.77 bitrate=N/A speed=7.62x    frame=33747 fps=183 q=-0.0 size=N/A time=00:23:27.53 bitrate=N/A speed=7.62x    frame=33838 fps=183 q=-0.0 size=N/A time=00:23:31.32 bitrate=N/A speed=7.62x    frame=33925 fps=183 q=-0.0 size=N/A time=00:23:34.95 bitrate=N/A speed=7.62x    frame=34021 fps=183 q=-0.0 size=N/A time=00:23:38.95 bitrate=N/A speed=7.62x    frame=34113 fps=183 q=-0.0 size=N/A time=00:23:42.79 bitrate=N/A speed=7.62x    frame=34198 fps=183 q=-0.0 size=N/A time=00:23:46.34 bitrate=N/A speed=7.61x    frame=34269 fps=182 q=-0.0 size=N/A time=00:23:49.30 bitrate=N/A speed=7.61x    frame=34377 fps=183 q=-0.0 size=N/A time=00:23:53.80 bitrate=N/A speed=7.61x    [Parsed_ssim_10 @ 000001fc5731f340] SSIM Y:0.993659 (21.978294) U:0.995669 (23.634525) V:0.995817 (23.784820) All:0.994354 (22.482254)
[out#0/null @ 000001fc4b788580] video:14805KiB audio:269464KiB subtitle:0KiB other streams:0KiB global headers:0KiB muxing overhead: unknown
frame=34456 fps=183 q=-0.0 Lsize=N/A time=00:23:57.10 bitrate=N/A speed=7.61x    
